<svg xmlns="http://www.w3.org/2000/svg" viewBox="0 0 21 21" shape-rendering="crispEdges" width="100%" height="100%"><rect x="10" y="1" width="1" height="1" fill="#2f5c17"/><rect x="8" y="2" width="1" height="1" fill="#5fa832"/><rect x="9" y="2" width="1" height="1" fill="#2f5c17"/><rect x="10" y="2" width="1" height="1" fill="#5fa832"/><rect x="11" y="2" width="1" height="1" fill="#2f5c17"/><rect x="6" y="3" width="3" height="1" fill="#2f5c17"/><rect x="9" y="3" width="2" height="1" fill="#86d155"/><rect x="11" y="3" width="1" height="1" fill="#5fa832"/><rect x="12" y="3" width="3" height="1" fill="#2f5c17"/><rect x="4" y="4" width="1" height="1" fill="#5fa832"/><rect x="5" y="4" width="1" height="1" fill="#2f5c17"/><rect x="6" y="4" width="1" height="1" fill="#5fa832"/><rect x="7" y="4" width="6" height="1" fill="#86d155"/><rect x="13" y="4" width="2" height="1" fill="#5fa832"/><rect x="15" y="4" width="1" height="1" fill="#2f5c17"/><rect x="2" y="5" width="3" height="1" fill="#2f5c17"/><rect x="5" y="5" width="10" height="1" fill="#86d155"/><rect x="15" y="5" width="1" height="1" fill="#5fa832"/><rect x="16" y="5" width="3" height="1" fill="#2f5c17"/><rect x="1" y="6" width="1" height="1" fill="#2f5c17"/><rect x="2" y="6" width="3" height="1" fill="#5fa832"/><rect x="5" y="6" width="10" height="1" fill="#86d155"/><rect x="15" y="6" width="3" height="1" fill="#5fa832"/><rect x="18" y="6" width="1" height="1" fill="#39641e"/><rect x="19" y="6" width="1" height="1" fill="#2f5c17"/><rect x="1" y="7" width="4" height="1" fill="#2f5c17"/><rect x="5" y="7" width="2" height="1" fill="#5fa832"/><rect x="7" y="7" width="6" height="1" fill="#86d155"/><rect x="13" y="7" width="3" height="1" fill="#5fa832"/><rect x="16" y="7" width="4" height="1" fill="#2f5c17"/><rect x="1" y="8" width="1" height="1" fill="#2f5c17"/><rect x="2" y="8" width="3" height="1" fill="#4a8327"/><rect x="5" y="8" width="1" height="1" fill="#2f5c17"/><rect x="6" y="8" width="3" height="1" fill="#5fa832"/><rect x="9" y="8" width="2" height="1" fill="#86d155"/><rect x="11" y="8" width="3" height="1" fill="#5fa832"/><rect x="14" y="8" width="1" height="1" fill="#39641e"/><rect x="15" y="8" width="1" height="1" fill="#2f5c17"/><rect x="16" y="8" width="3" height="1" fill="#39641e"/><rect x="19" y="8" width="1" height="1" fill="#2f5c17"/><rect x="1" y="9" width="1" height="1" fill="#2f5c17"/><rect x="2" y="9" width="1" height="1" fill="#4a8327"/><rect x="3" y="9" width="2" height="1" fill="#68a342"/><rect x="5" y="9" width="1" height="1" fill="#4a8327"/><rect x="6" y="9" width="3" height="1" fill="#2f5c17"/><rect x="9" y="9" width="3" height="1" fill="#5fa832"/><rect x="12" y="9" width="3" height="1" fill="#2f5c17"/><rect x="15" y="9" width="2" height="1" fill="#507d33"/><rect x="17" y="9" width="2" height="1" fill="#39641e"/><rect x="19" y="9" width="1" height="1" fill="#2f5c17"/><rect x="1" y="10" width="1" height="1" fill="#2f5c17"/><rect x="2" y="10" width="1" height="1" fill="#4a8327"/><rect x="3" y="10" width="4" height="1" fill="#68a342"/><rect x="7" y="10" width="2" height="1" fill="#4a8327"/><rect x="9" y="10" width="1" height="1" fill="#2f5c17"/><rect x="10" y="10" width="1" height="1" fill="#39641e"/><rect x="11" y="10" width="1" height="1" fill="#2f5c17"/><rect x="12" y="10" width="1" height="1" fill="#39641e"/><rect x="13" y="10" width="4" height="1" fill="#507d33"/><rect x="17" y="10" width="2" height="1" fill="#39641e"/><rect x="19" y="10" width="1" height="1" fill="#2f5c17"/><rect x="1" y="11" width="1" height="1" fill="#2f5c17"/><rect x="2" y="11" width="1" height="1" fill="#4a8327"/><rect x="3" y="11" width="5" height="1" fill="#68a342"/><rect x="8" y="11" width="2" height="1" fill="#4a8327"/><rect x="10" y="11" width="1" height="1" fill="#2f5c17"/><rect x="11" y="11" width="1" height="1" fill="#39641e"/><rect x="12" y="11" width="5" height="1" fill="#507d33"/><rect x="17" y="11" width="2" height="1" fill="#39641e"/><rect x="19" y="11" width="1" height="1" fill="#2f5c17"/><rect x="1" y="12" width="1" height="1" fill="#2f5c17"/><rect x="2" y="12" width="1" height="1" fill="#4a8327"/><rect x="3" y="12" width="5" height="1" fill="#68a342"/><rect x="8" y="12" width="2" height="1" fill="#4a8327"/><rect x="10" y="12" width="2" height="1" fill="#39641e"/><rect x="12" y="12" width="5" height="1" fill="#507d33"/><rect x="17" y="12" width="2" height="1" fill="#39641e"/><rect x="19" y="12" width="1" height="1" fill="#2f5c17"/><rect x="1" y="13" width="1" height="1" fill="#2f5c17"/><rect x="2" y="13" width="1" height="1" fill="#4a8327"/><rect x="3" y="13" width="5" height="1" fill="#68a342"/><rect x="8" y="13" width="2" height="1" fill="#4a8327"/><rect x="10" y="13" width="1" height="1" fill="#2f5c17"/><rect x="11" y="13" width="1" height="1" fill="#39641e"/><rect x="12" y="13" width="5" height="1" fill="#507d33"/><rect x="17" y="13" width="2" height="1" fill="#39641e"/><rect x="19" y="13" width="1" height="1" fill="#2f5c17"/><rect x="1" y="14" width="1" height="1" fill="#2f5c17"/><rect x="2" y="14" width="1" height="1" fill="#4a8327"/><rect x="3" y="14" width="5" height="1" fill="#68a342"/><rect x="8" y="14" width="2" height="1" fill="#4a8327"/><rect x="10" y="14" width="2" height="1" fill="#39641e"/><rect x="12" y="14" width="5" height="1" fill="#507d33"/><rect x="17" y="14" width="2" height="1" fill="#39641e"/><rect x="19" y="14" width="1" height="1" fill="#2f5c17"/><rect x="1" y="15" width="2" height="1" fill="#2f5c17"/><rect x="3" y="15" width="2" height="1" fill="#4a8327"/><rect x="5" y="15" width="3" height="1" fill="#68a342"/><rect x="8" y="15" width="2" height="1" fill="#4a8327"/><rect x="10" y="15" width="1" height="1" fill="#2f5c17"/><rect x="11" y="15" width="1" height="1" fill="#39641e"/><rect x="12" y="15" width="3" height="1" fill="#507d33"/><rect x="15" y="15" width="3" height="1" fill="#39641e"/><rect x="18" y="15" width="2" height="1" fill="#2f5c17"/><rect x="3" y="16" width="1" height="1" fill="#2f5c17"/><rect x="4" y="16" width="3" height="1" fill="#4a8327"/><rect x="7" y="16" width="1" height="1" fill="#68a342"/><rect x="8" y="16" width="2" height="1" fill="#4a8327"/><rect x="10" y="16" width="2" height="1" fill="#39641e"/><rect x="12" y="16" width="1" height="1" fill="#507d33"/><rect x="13" y="16" width="3" height="1" fill="#39641e"/><rect x="17" y="16" width="1" height="1" fill="#2f5c17"/><rect x="4" y="17" width="3" height="1" fill="#2f5c17"/><rect x="7" y="17" width="3" height="1" fill="#4a8327"/><rect x="10" y="17" width="1" height="1" fill="#2f5c17"/><rect x="11" y="17" width="3" height="1" fill="#39641e"/><rect x="14" y="17" width="3" height="1" fill="#2f5c17"/><rect x="7" y="18" width="1" height="1" fill="#2f5c17"/><rect x="8" y="18" width="2" height="1" fill="#4a8327"/><rect x="10" y="18" width="2" height="1" fill="#39641e"/><rect x="13" y="18" width="1" height="1" fill="#2f5c17"/><rect x="8" y="19" width="5" height="1" fill="#2f5c17"/></svg>